<mxfile host="app.diagrams.net" agent="Mozilla/5.0 (Windows NT 10.0; Win64; x64; rv:144.0) Gecko/20100101 Firefox/144.0" version="28.2.8">
  <diagram name="Page-1" id="Iok2QuRzbq-jj-xIFoYR">
    <mxGraphModel dx="2225" dy="803" grid="1" gridSize="10" guides="1" tooltips="1" connect="1" arrows="1" fold="1" page="1" pageScale="1" pageWidth="850" pageHeight="1100" background="light-dark(#FFFFFF,#FFFFFF)" math="0" shadow="0">
      <root>
        <mxCell id="0" />
        <mxCell id="1" parent="0" />
        <mxCell id="pzfVC9VM8FYr7gVDMRTt-37" value="" style="edgeStyle=none;curved=1;rounded=0;orthogonalLoop=1;jettySize=auto;html=1;fontSize=12;startSize=8;endSize=8;entryX=0.5;entryY=0;entryDx=0;entryDy=0;labelBackgroundColor=none;fontColor=default;" edge="1" parent="1" source="0Sv_x03-M9tLxZnkzReq-1" target="pzfVC9VM8FYr7gVDMRTt-15">
          <mxGeometry relative="1" as="geometry" />
        </mxCell>
        <mxCell id="0Sv_x03-M9tLxZnkzReq-1" value="Customer/SAM training request" style="rounded=1;whiteSpace=wrap;html=1;labelBackgroundColor=none;" parent="1" vertex="1">
          <mxGeometry x="110" y="193" width="190" height="30" as="geometry" />
        </mxCell>
        <mxCell id="0Sv_x03-M9tLxZnkzReq-2" value="" style="endArrow=none;html=1;rounded=0;fontSize=12;startSize=8;endSize=8;curved=1;labelBackgroundColor=none;fontColor=default;" parent="1" edge="1">
          <mxGeometry width="50" height="50" relative="1" as="geometry">
            <mxPoint y="100" as="sourcePoint" />
            <mxPoint x="1150" y="100" as="targetPoint" />
          </mxGeometry>
        </mxCell>
        <mxCell id="0Sv_x03-M9tLxZnkzReq-3" value="" style="shape=link;html=1;rounded=0;fontSize=12;startSize=8;endSize=8;curved=1;labelBackgroundColor=none;fontColor=default;" parent="1" edge="1">
          <mxGeometry width="100" relative="1" as="geometry">
            <mxPoint y="84" as="sourcePoint" />
            <mxPoint x="1150" y="84" as="targetPoint" />
          </mxGeometry>
        </mxCell>
        <mxCell id="pzfVC9VM8FYr7gVDMRTt-6" value="Responsible" style="edgeLabel;html=1;align=center;verticalAlign=middle;resizable=0;points=[];fontSize=12;labelBackgroundColor=none;" vertex="1" connectable="0" parent="0Sv_x03-M9tLxZnkzReq-3">
          <mxGeometry x="0.5553" y="-9" relative="1" as="geometry">
            <mxPoint x="-254" y="-1" as="offset" />
          </mxGeometry>
        </mxCell>
        <mxCell id="pzfVC9VM8FYr7gVDMRTt-7" value="Accountable" style="edgeLabel;html=1;align=center;verticalAlign=middle;resizable=0;points=[];fontSize=12;labelBackgroundColor=none;" vertex="1" connectable="0" parent="0Sv_x03-M9tLxZnkzReq-3">
          <mxGeometry x="0.6447" y="-11" relative="1" as="geometry">
            <mxPoint x="-227" y="-3" as="offset" />
          </mxGeometry>
        </mxCell>
        <mxCell id="pzfVC9VM8FYr7gVDMRTt-9" value="Consulted" style="edgeLabel;html=1;align=center;verticalAlign=middle;resizable=0;points=[];fontSize=12;labelBackgroundColor=none;" vertex="1" connectable="0" parent="0Sv_x03-M9tLxZnkzReq-3">
          <mxGeometry x="0.7365" y="-11" relative="1" as="geometry">
            <mxPoint x="-206" y="-2" as="offset" />
          </mxGeometry>
        </mxCell>
        <mxCell id="pzfVC9VM8FYr7gVDMRTt-12" value="Informed" style="edgeLabel;html=1;align=center;verticalAlign=middle;resizable=0;points=[];fontSize=12;labelBackgroundColor=none;" vertex="1" connectable="0" parent="0Sv_x03-M9tLxZnkzReq-3">
          <mxGeometry x="0.4974" y="-9" relative="1" as="geometry">
            <mxPoint x="1" y="-1" as="offset" />
          </mxGeometry>
        </mxCell>
        <mxCell id="pzfVC9VM8FYr7gVDMRTt-1" value="" style="shape=link;html=1;rounded=0;fontSize=12;startSize=8;endSize=8;curved=1;labelBackgroundColor=none;fontColor=default;" edge="1" parent="1">
          <mxGeometry width="100" relative="1" as="geometry">
            <mxPoint x="600" y="80" as="sourcePoint" />
            <mxPoint x="600" y="1363" as="targetPoint" />
          </mxGeometry>
        </mxCell>
        <mxCell id="pzfVC9VM8FYr7gVDMRTt-2" value="" style="shape=link;html=1;rounded=0;fontSize=12;startSize=8;endSize=8;curved=1;labelBackgroundColor=none;fontColor=default;" edge="1" parent="1">
          <mxGeometry width="100" relative="1" as="geometry">
            <mxPoint x="680" y="80" as="sourcePoint" />
            <mxPoint x="680" y="1363" as="targetPoint" />
          </mxGeometry>
        </mxCell>
        <mxCell id="pzfVC9VM8FYr7gVDMRTt-3" value="" style="shape=link;html=1;rounded=0;fontSize=12;startSize=8;endSize=8;curved=1;labelBackgroundColor=none;fontColor=default;" edge="1" parent="1">
          <mxGeometry width="100" relative="1" as="geometry">
            <mxPoint x="760" y="80" as="sourcePoint" />
            <mxPoint x="760" y="1363" as="targetPoint" />
          </mxGeometry>
        </mxCell>
        <mxCell id="pzfVC9VM8FYr7gVDMRTt-4" value="" style="shape=link;html=1;rounded=0;fontSize=12;startSize=8;endSize=8;curved=1;labelBackgroundColor=none;fontColor=default;" edge="1" parent="1">
          <mxGeometry width="100" relative="1" as="geometry">
            <mxPoint x="830" y="83" as="sourcePoint" />
            <mxPoint x="830" y="1360" as="targetPoint" />
          </mxGeometry>
        </mxCell>
        <mxCell id="pzfVC9VM8FYr7gVDMRTt-5" value="" style="shape=link;html=1;rounded=0;fontSize=12;startSize=8;endSize=8;curved=1;labelBackgroundColor=none;fontColor=default;" edge="1" parent="1">
          <mxGeometry width="100" relative="1" as="geometry">
            <mxPoint x="900" y="82" as="sourcePoint" />
            <mxPoint x="900" y="1360" as="targetPoint" />
          </mxGeometry>
        </mxCell>
        <mxCell id="pzfVC9VM8FYr7gVDMRTt-13" value="&lt;font style=&quot;font-size: 24px;&quot;&gt;RACI&lt;/font&gt;" style="text;html=1;whiteSpace=wrap;strokeColor=none;fillColor=none;align=center;verticalAlign=middle;rounded=0;fontSize=16;labelBackgroundColor=none;" vertex="1" parent="1">
          <mxGeometry x="680" y="40" width="110" height="40" as="geometry" />
        </mxCell>
        <mxCell id="pzfVC9VM8FYr7gVDMRTt-39" value="" style="edgeStyle=none;curved=1;rounded=0;orthogonalLoop=1;jettySize=auto;html=1;fontSize=12;startSize=8;endSize=8;entryX=0.5;entryY=0;entryDx=0;entryDy=0;labelBackgroundColor=none;fontColor=default;" edge="1" parent="1" source="pzfVC9VM8FYr7gVDMRTt-15" target="pzfVC9VM8FYr7gVDMRTt-16">
          <mxGeometry relative="1" as="geometry" />
        </mxCell>
        <mxCell id="pzfVC9VM8FYr7gVDMRTt-15" value="SAM sends training needs questionnaire to customer" style="rounded=1;whiteSpace=wrap;html=1;labelBackgroundColor=none;" vertex="1" parent="1">
          <mxGeometry x="110" y="273" width="190" height="50" as="geometry" />
        </mxCell>
        <mxCell id="pzfVC9VM8FYr7gVDMRTt-16" value="Questionnaire and training needs review and discussion" style="rounded=1;whiteSpace=wrap;html=1;labelBackgroundColor=none;" vertex="1" parent="1">
          <mxGeometry x="110" y="377" width="190" height="50" as="geometry" />
        </mxCell>
        <mxCell id="pzfVC9VM8FYr7gVDMRTt-47" value="" style="edgeStyle=none;curved=1;rounded=0;orthogonalLoop=1;jettySize=auto;html=1;fontSize=12;startSize=8;endSize=8;labelBackgroundColor=none;fontColor=default;" edge="1" parent="1" source="pzfVC9VM8FYr7gVDMRTt-17" target="pzfVC9VM8FYr7gVDMRTt-26">
          <mxGeometry relative="1" as="geometry" />
        </mxCell>
        <mxCell id="pzfVC9VM8FYr7gVDMRTt-17" value="If answers to questionnaire clear" style="rhombus;whiteSpace=wrap;html=1;labelBackgroundColor=none;" vertex="1" parent="1">
          <mxGeometry x="120" y="477" width="170" height="160" as="geometry" />
        </mxCell>
        <mxCell id="pzfVC9VM8FYr7gVDMRTt-41" value="" style="edgeStyle=none;curved=1;rounded=0;orthogonalLoop=1;jettySize=auto;html=1;fontSize=12;startSize=8;endSize=8;labelBackgroundColor=none;fontColor=default;" edge="1" parent="1" source="pzfVC9VM8FYr7gVDMRTt-19" target="pzfVC9VM8FYr7gVDMRTt-16">
          <mxGeometry relative="1" as="geometry" />
        </mxCell>
        <mxCell id="pzfVC9VM8FYr7gVDMRTt-19" value="Discovery call to determine training needs with customer" style="rounded=1;whiteSpace=wrap;html=1;labelBackgroundColor=none;" vertex="1" parent="1">
          <mxGeometry x="370" y="377" width="190" height="50" as="geometry" />
        </mxCell>
        <mxCell id="pzfVC9VM8FYr7gVDMRTt-24" value="" style="edgeStyle=segmentEdgeStyle;endArrow=classic;html=1;curved=0;rounded=0;endSize=8;startSize=8;fontSize=12;exitX=1;exitY=0.5;exitDx=0;exitDy=0;entryX=0.495;entryY=1.16;entryDx=0;entryDy=0;entryPerimeter=0;labelBackgroundColor=none;fontColor=default;" edge="1" parent="1" source="pzfVC9VM8FYr7gVDMRTt-17" target="pzfVC9VM8FYr7gVDMRTt-19">
          <mxGeometry width="50" height="50" relative="1" as="geometry">
            <mxPoint x="270" y="393" as="sourcePoint" />
            <mxPoint x="320" y="343" as="targetPoint" />
          </mxGeometry>
        </mxCell>
        <mxCell id="pzfVC9VM8FYr7gVDMRTt-25" value="False" style="text;html=1;whiteSpace=wrap;strokeColor=none;fillColor=none;align=center;verticalAlign=middle;rounded=0;fontSize=16;labelBackgroundColor=none;" vertex="1" parent="1">
          <mxGeometry x="350" y="513" width="60" height="30" as="geometry" />
        </mxCell>
        <mxCell id="pzfVC9VM8FYr7gVDMRTt-49" value="" style="edgeStyle=none;curved=1;rounded=0;orthogonalLoop=1;jettySize=auto;html=1;fontSize=12;startSize=8;endSize=8;entryX=0.5;entryY=0;entryDx=0;entryDy=0;labelBackgroundColor=none;fontColor=default;" edge="1" parent="1" source="pzfVC9VM8FYr7gVDMRTt-26" target="pzfVC9VM8FYr7gVDMRTt-27">
          <mxGeometry relative="1" as="geometry" />
        </mxCell>
        <mxCell id="pzfVC9VM8FYr7gVDMRTt-26" value="Finalize training needs, send agenda and logistics information" style="rounded=1;whiteSpace=wrap;html=1;labelBackgroundColor=none;" vertex="1" parent="1">
          <mxGeometry x="110" y="723" width="190" height="50" as="geometry" />
        </mxCell>
        <mxCell id="pzfVC9VM8FYr7gVDMRTt-51" value="" style="edgeStyle=none;curved=1;rounded=0;orthogonalLoop=1;jettySize=auto;html=1;fontSize=12;startSize=8;endSize=8;entryX=0.5;entryY=0;entryDx=0;entryDy=0;labelBackgroundColor=none;fontColor=default;" edge="1" parent="1" source="pzfVC9VM8FYr7gVDMRTt-27" target="pzfVC9VM8FYr7gVDMRTt-28">
          <mxGeometry relative="1" as="geometry" />
        </mxCell>
        <mxCell id="pzfVC9VM8FYr7gVDMRTt-27" value="Training OPP accepted, PO won, NNPR entry created in CRM" style="rounded=1;whiteSpace=wrap;html=1;labelBackgroundColor=none;" vertex="1" parent="1">
          <mxGeometry x="110" y="823" width="190" height="50" as="geometry" />
        </mxCell>
        <mxCell id="pzfVC9VM8FYr7gVDMRTt-53" value="" style="edgeStyle=none;curved=1;rounded=0;orthogonalLoop=1;jettySize=auto;html=1;fontSize=12;startSize=8;endSize=8;labelBackgroundColor=none;fontColor=default;" edge="1" parent="1" source="pzfVC9VM8FYr7gVDMRTt-28" target="pzfVC9VM8FYr7gVDMRTt-33">
          <mxGeometry relative="1" as="geometry" />
        </mxCell>
        <mxCell id="pzfVC9VM8FYr7gVDMRTt-28" value="TL assigns PAS" style="rounded=1;whiteSpace=wrap;html=1;labelBackgroundColor=none;" vertex="1" parent="1">
          <mxGeometry x="110" y="923" width="190" height="50" as="geometry" />
        </mxCell>
        <mxCell id="pzfVC9VM8FYr7gVDMRTt-56" value="" style="edgeStyle=none;curved=1;rounded=0;orthogonalLoop=1;jettySize=auto;html=1;fontSize=12;startSize=8;endSize=8;entryX=0.5;entryY=0;entryDx=0;entryDy=0;labelBackgroundColor=none;fontColor=default;" edge="1" parent="1" source="pzfVC9VM8FYr7gVDMRTt-29" target="pzfVC9VM8FYr7gVDMRTt-31">
          <mxGeometry relative="1" as="geometry" />
        </mxCell>
        <mxCell id="pzfVC9VM8FYr7gVDMRTt-29" value="Training preparation, logistics and delivery by PAS" style="rounded=1;whiteSpace=wrap;html=1;labelBackgroundColor=none;" vertex="1" parent="1">
          <mxGeometry x="110" y="1113" width="190" height="50" as="geometry" />
        </mxCell>
        <mxCell id="pzfVC9VM8FYr7gVDMRTt-57" value="" style="edgeStyle=none;curved=1;rounded=0;orthogonalLoop=1;jettySize=auto;html=1;fontSize=12;startSize=8;endSize=8;labelBackgroundColor=none;fontColor=default;" edge="1" parent="1" source="pzfVC9VM8FYr7gVDMRTt-31" target="pzfVC9VM8FYr7gVDMRTt-32">
          <mxGeometry relative="1" as="geometry" />
        </mxCell>
        <mxCell id="pzfVC9VM8FYr7gVDMRTt-31" value="PAS secures acknowledgement from customer and follows CRM post-training working instructions" style="rounded=1;whiteSpace=wrap;html=1;labelBackgroundColor=none;" vertex="1" parent="1">
          <mxGeometry x="110" y="1198" width="190" height="50" as="geometry" />
        </mxCell>
        <mxCell id="pzfVC9VM8FYr7gVDMRTt-32" value="Revenue recognition" style="rounded=1;whiteSpace=wrap;html=1;labelBackgroundColor=none;" vertex="1" parent="1">
          <mxGeometry x="110" y="1283" width="190" height="50" as="geometry" />
        </mxCell>
        <mxCell id="pzfVC9VM8FYr7gVDMRTt-54" value="" style="edgeStyle=none;curved=1;rounded=0;orthogonalLoop=1;jettySize=auto;html=1;fontSize=12;startSize=8;endSize=8;entryX=0.5;entryY=0;entryDx=0;entryDy=0;labelBackgroundColor=none;fontColor=default;" edge="1" parent="1" source="pzfVC9VM8FYr7gVDMRTt-33" target="pzfVC9VM8FYr7gVDMRTt-29">
          <mxGeometry relative="1" as="geometry">
            <mxPoint x="200" y="1103" as="targetPoint" />
          </mxGeometry>
        </mxCell>
        <mxCell id="pzfVC9VM8FYr7gVDMRTt-33" value="PAS enters NNPR segment information and applies for travel approval" style="rounded=1;whiteSpace=wrap;html=1;labelBackgroundColor=none;" vertex="1" parent="1">
          <mxGeometry x="110" y="1013" width="190" height="50" as="geometry" />
        </mxCell>
        <mxCell id="pzfVC9VM8FYr7gVDMRTt-35" value="" style="endArrow=none;dashed=1;html=1;dashPattern=1 3;strokeWidth=2;rounded=0;fontSize=12;startSize=8;endSize=8;curved=1;labelBackgroundColor=none;fontColor=default;" edge="1" parent="1">
          <mxGeometry width="50" height="50" relative="1" as="geometry">
            <mxPoint y="243" as="sourcePoint" />
            <mxPoint x="1170" y="243" as="targetPoint" />
          </mxGeometry>
        </mxCell>
        <mxCell id="pzfVC9VM8FYr7gVDMRTt-38" value="" style="endArrow=none;dashed=1;html=1;dashPattern=1 3;strokeWidth=2;rounded=0;fontSize=12;startSize=8;endSize=8;curved=1;labelBackgroundColor=none;fontColor=default;" edge="1" parent="1">
          <mxGeometry width="50" height="50" relative="1" as="geometry">
            <mxPoint y="183" as="sourcePoint" />
            <mxPoint x="1170" y="183" as="targetPoint" />
          </mxGeometry>
        </mxCell>
        <mxCell id="pzfVC9VM8FYr7gVDMRTt-42" style="edgeStyle=none;curved=1;rounded=0;orthogonalLoop=1;jettySize=auto;html=1;exitX=0.5;exitY=1;exitDx=0;exitDy=0;entryX=0.506;entryY=0.05;entryDx=0;entryDy=0;entryPerimeter=0;fontSize=12;startSize=8;endSize=8;labelBackgroundColor=none;fontColor=default;" edge="1" parent="1" source="pzfVC9VM8FYr7gVDMRTt-16" target="pzfVC9VM8FYr7gVDMRTt-17">
          <mxGeometry relative="1" as="geometry" />
        </mxCell>
        <mxCell id="pzfVC9VM8FYr7gVDMRTt-44" value="" style="endArrow=none;dashed=1;html=1;dashPattern=1 3;strokeWidth=2;rounded=0;fontSize=12;startSize=8;endSize=8;curved=1;labelBackgroundColor=none;fontColor=default;" edge="1" parent="1">
          <mxGeometry width="50" height="50" relative="1" as="geometry">
            <mxPoint y="343" as="sourcePoint" />
            <mxPoint x="1170" y="343" as="targetPoint" />
          </mxGeometry>
        </mxCell>
        <mxCell id="pzfVC9VM8FYr7gVDMRTt-45" value="" style="endArrow=none;dashed=1;html=1;dashPattern=1 3;strokeWidth=2;rounded=0;fontSize=12;startSize=8;endSize=8;curved=1;labelBackgroundColor=none;fontColor=default;" edge="1" parent="1">
          <mxGeometry width="50" height="50" relative="1" as="geometry">
            <mxPoint y="453" as="sourcePoint" />
            <mxPoint x="1170" y="453" as="targetPoint" />
          </mxGeometry>
        </mxCell>
        <mxCell id="pzfVC9VM8FYr7gVDMRTt-46" value="" style="endArrow=none;dashed=1;html=1;dashPattern=1 3;strokeWidth=2;rounded=0;fontSize=12;startSize=8;endSize=8;curved=1;labelBackgroundColor=none;fontColor=default;" edge="1" parent="1">
          <mxGeometry width="50" height="50" relative="1" as="geometry">
            <mxPoint y="683" as="sourcePoint" />
            <mxPoint x="1170" y="683" as="targetPoint" />
          </mxGeometry>
        </mxCell>
        <mxCell id="pzfVC9VM8FYr7gVDMRTt-48" value="True" style="text;html=1;whiteSpace=wrap;strokeColor=none;fillColor=none;align=center;verticalAlign=middle;rounded=0;fontSize=16;labelBackgroundColor=none;" vertex="1" parent="1">
          <mxGeometry x="220" y="643" width="60" height="30" as="geometry" />
        </mxCell>
        <mxCell id="pzfVC9VM8FYr7gVDMRTt-50" value="" style="endArrow=none;dashed=1;html=1;dashPattern=1 3;strokeWidth=2;rounded=0;fontSize=12;startSize=8;endSize=8;curved=1;labelBackgroundColor=none;fontColor=default;" edge="1" parent="1">
          <mxGeometry width="50" height="50" relative="1" as="geometry">
            <mxPoint y="803" as="sourcePoint" />
            <mxPoint x="1170" y="803" as="targetPoint" />
          </mxGeometry>
        </mxCell>
        <mxCell id="pzfVC9VM8FYr7gVDMRTt-52" value="" style="endArrow=none;dashed=1;html=1;dashPattern=1 3;strokeWidth=2;rounded=0;fontSize=12;startSize=8;endSize=8;curved=1;labelBackgroundColor=none;fontColor=default;" edge="1" parent="1">
          <mxGeometry width="50" height="50" relative="1" as="geometry">
            <mxPoint y="893" as="sourcePoint" />
            <mxPoint x="1170" y="893" as="targetPoint" />
          </mxGeometry>
        </mxCell>
        <mxCell id="pzfVC9VM8FYr7gVDMRTt-58" value="" style="endArrow=none;dashed=1;html=1;dashPattern=1 3;strokeWidth=2;rounded=0;fontSize=12;startSize=8;endSize=8;curved=1;labelBackgroundColor=none;fontColor=default;" edge="1" parent="1">
          <mxGeometry width="50" height="50" relative="1" as="geometry">
            <mxPoint y="993" as="sourcePoint" />
            <mxPoint x="1170" y="993" as="targetPoint" />
          </mxGeometry>
        </mxCell>
        <mxCell id="pzfVC9VM8FYr7gVDMRTt-59" value="" style="endArrow=none;dashed=1;html=1;dashPattern=1 3;strokeWidth=2;rounded=0;fontSize=12;startSize=8;endSize=8;curved=1;labelBackgroundColor=none;fontColor=default;" edge="1" parent="1">
          <mxGeometry width="50" height="50" relative="1" as="geometry">
            <mxPoint y="1083" as="sourcePoint" />
            <mxPoint x="1170" y="1083" as="targetPoint" />
          </mxGeometry>
        </mxCell>
        <mxCell id="pzfVC9VM8FYr7gVDMRTt-60" value="" style="endArrow=none;dashed=1;html=1;dashPattern=1 3;strokeWidth=2;rounded=0;fontSize=12;startSize=8;endSize=8;curved=1;labelBackgroundColor=none;fontColor=default;" edge="1" parent="1">
          <mxGeometry width="50" height="50" relative="1" as="geometry">
            <mxPoint y="1182" as="sourcePoint" />
            <mxPoint x="1170" y="1182" as="targetPoint" />
          </mxGeometry>
        </mxCell>
        <mxCell id="pzfVC9VM8FYr7gVDMRTt-61" value="" style="endArrow=none;dashed=1;html=1;dashPattern=1 3;strokeWidth=2;rounded=0;fontSize=12;startSize=8;endSize=8;curved=1;labelBackgroundColor=none;fontColor=default;" edge="1" parent="1">
          <mxGeometry width="50" height="50" relative="1" as="geometry">
            <mxPoint y="1263" as="sourcePoint" />
            <mxPoint x="1170" y="1263" as="targetPoint" />
          </mxGeometry>
        </mxCell>
        <mxCell id="pzfVC9VM8FYr7gVDMRTt-62" value="SAM" style="text;html=1;whiteSpace=wrap;strokeColor=none;fillColor=none;align=center;verticalAlign=middle;rounded=0;fontSize=16;labelBackgroundColor=none;" vertex="1" parent="1">
          <mxGeometry x="610" y="193" width="60" height="30" as="geometry" />
        </mxCell>
        <mxCell id="pzfVC9VM8FYr7gVDMRTt-63" value="TL" style="text;html=1;whiteSpace=wrap;strokeColor=none;fillColor=none;align=center;verticalAlign=middle;rounded=0;fontSize=16;labelBackgroundColor=none;" vertex="1" parent="1">
          <mxGeometry x="760" y="193" width="60" height="30" as="geometry" />
        </mxCell>
        <mxCell id="pzfVC9VM8FYr7gVDMRTt-65" value="TL" style="text;html=1;whiteSpace=wrap;strokeColor=none;fillColor=none;align=center;verticalAlign=middle;rounded=0;fontSize=16;labelBackgroundColor=none;" vertex="1" parent="1">
          <mxGeometry x="830" y="193" width="60" height="30" as="geometry" />
        </mxCell>
        <mxCell id="pzfVC9VM8FYr7gVDMRTt-66" value="SAM" style="text;html=1;whiteSpace=wrap;strokeColor=none;fillColor=none;align=center;verticalAlign=middle;rounded=0;fontSize=16;labelBackgroundColor=none;" vertex="1" parent="1">
          <mxGeometry x="690" y="193" width="60" height="30" as="geometry" />
        </mxCell>
        <mxCell id="pzfVC9VM8FYr7gVDMRTt-67" value="SAM" style="text;html=1;whiteSpace=wrap;strokeColor=none;fillColor=none;align=center;verticalAlign=middle;rounded=0;fontSize=16;labelBackgroundColor=none;" vertex="1" parent="1">
          <mxGeometry x="610" y="273" width="60" height="30" as="geometry" />
        </mxCell>
        <mxCell id="pzfVC9VM8FYr7gVDMRTt-68" value="SAM" style="text;html=1;whiteSpace=wrap;strokeColor=none;fillColor=none;align=center;verticalAlign=middle;rounded=0;fontSize=16;labelBackgroundColor=none;" vertex="1" parent="1">
          <mxGeometry x="690" y="273" width="60" height="30" as="geometry" />
        </mxCell>
        <mxCell id="pzfVC9VM8FYr7gVDMRTt-69" value="TL" style="text;html=1;whiteSpace=wrap;strokeColor=none;fillColor=none;align=center;verticalAlign=middle;rounded=0;fontSize=16;labelBackgroundColor=none;" vertex="1" parent="1">
          <mxGeometry x="760" y="273" width="60" height="30" as="geometry" />
        </mxCell>
        <mxCell id="pzfVC9VM8FYr7gVDMRTt-70" value="TL" style="text;html=1;whiteSpace=wrap;strokeColor=none;fillColor=none;align=center;verticalAlign=middle;rounded=0;fontSize=16;labelBackgroundColor=none;" vertex="1" parent="1">
          <mxGeometry x="830" y="273" width="60" height="30" as="geometry" />
        </mxCell>
        <mxCell id="pzfVC9VM8FYr7gVDMRTt-71" value="SAM, TL" style="text;html=1;whiteSpace=wrap;strokeColor=none;fillColor=none;align=center;verticalAlign=middle;rounded=0;fontSize=16;labelBackgroundColor=none;" vertex="1" parent="1">
          <mxGeometry x="610" y="383" width="60" height="30" as="geometry" />
        </mxCell>
        <mxCell id="pzfVC9VM8FYr7gVDMRTt-72" value="TL" style="text;html=1;whiteSpace=wrap;strokeColor=none;fillColor=none;align=center;verticalAlign=middle;rounded=0;fontSize=16;labelBackgroundColor=none;" vertex="1" parent="1">
          <mxGeometry x="690" y="383" width="60" height="30" as="geometry" />
        </mxCell>
        <mxCell id="pzfVC9VM8FYr7gVDMRTt-73" value="PAS" style="text;html=1;whiteSpace=wrap;strokeColor=none;fillColor=none;align=center;verticalAlign=middle;rounded=0;fontSize=16;labelBackgroundColor=none;" vertex="1" parent="1">
          <mxGeometry x="830" y="373" width="60" height="30" as="geometry" />
        </mxCell>
        <mxCell id="pzfVC9VM8FYr7gVDMRTt-74" value="TL" style="text;html=1;whiteSpace=wrap;strokeColor=none;fillColor=none;align=center;verticalAlign=middle;rounded=0;fontSize=16;labelBackgroundColor=none;" vertex="1" parent="1">
          <mxGeometry x="610" y="523" width="60" height="30" as="geometry" />
        </mxCell>
        <mxCell id="pzfVC9VM8FYr7gVDMRTt-75" value="TL" style="text;html=1;whiteSpace=wrap;strokeColor=none;fillColor=none;align=center;verticalAlign=middle;rounded=0;fontSize=16;labelBackgroundColor=none;" vertex="1" parent="1">
          <mxGeometry x="680" y="523" width="60" height="30" as="geometry" />
        </mxCell>
        <mxCell id="pzfVC9VM8FYr7gVDMRTt-76" value="&lt;div&gt;PAS&lt;/div&gt;" style="text;html=1;whiteSpace=wrap;strokeColor=none;fillColor=none;align=center;verticalAlign=middle;rounded=0;fontSize=16;labelBackgroundColor=none;" vertex="1" parent="1">
          <mxGeometry x="760" y="523" width="60" height="30" as="geometry" />
        </mxCell>
        <mxCell id="pzfVC9VM8FYr7gVDMRTt-77" value="PAS" style="text;html=1;whiteSpace=wrap;strokeColor=none;fillColor=none;align=center;verticalAlign=middle;rounded=0;fontSize=16;labelBackgroundColor=none;" vertex="1" parent="1">
          <mxGeometry x="840" y="523" width="60" height="30" as="geometry" />
        </mxCell>
        <mxCell id="pzfVC9VM8FYr7gVDMRTt-78" value="TL" style="text;html=1;whiteSpace=wrap;strokeColor=none;fillColor=none;align=center;verticalAlign=middle;rounded=0;fontSize=16;labelBackgroundColor=none;" vertex="1" parent="1">
          <mxGeometry x="610" y="733" width="60" height="30" as="geometry" />
        </mxCell>
        <mxCell id="pzfVC9VM8FYr7gVDMRTt-79" value="TL" style="text;html=1;whiteSpace=wrap;strokeColor=none;fillColor=none;align=center;verticalAlign=middle;rounded=0;fontSize=16;labelBackgroundColor=none;" vertex="1" parent="1">
          <mxGeometry x="690" y="733" width="60" height="30" as="geometry" />
        </mxCell>
        <mxCell id="pzfVC9VM8FYr7gVDMRTt-80" value="PAS" style="text;html=1;whiteSpace=wrap;strokeColor=none;fillColor=none;align=center;verticalAlign=middle;rounded=0;fontSize=16;labelBackgroundColor=none;" vertex="1" parent="1">
          <mxGeometry x="770" y="733" width="60" height="30" as="geometry" />
        </mxCell>
        <mxCell id="pzfVC9VM8FYr7gVDMRTt-81" value="PAS" style="text;html=1;whiteSpace=wrap;strokeColor=none;fillColor=none;align=center;verticalAlign=middle;rounded=0;fontSize=16;labelBackgroundColor=none;" vertex="1" parent="1">
          <mxGeometry x="830" y="733" width="60" height="30" as="geometry" />
        </mxCell>
        <mxCell id="pzfVC9VM8FYr7gVDMRTt-82" value="SAM" style="text;html=1;whiteSpace=wrap;strokeColor=none;fillColor=none;align=center;verticalAlign=middle;rounded=0;fontSize=16;labelBackgroundColor=none;" vertex="1" parent="1">
          <mxGeometry x="610" y="833" width="60" height="30" as="geometry" />
        </mxCell>
        <mxCell id="pzfVC9VM8FYr7gVDMRTt-83" value="TL" style="text;html=1;whiteSpace=wrap;strokeColor=none;fillColor=none;align=center;verticalAlign=middle;rounded=0;fontSize=16;labelBackgroundColor=none;" vertex="1" parent="1">
          <mxGeometry x="760" y="833" width="60" height="30" as="geometry" />
        </mxCell>
        <mxCell id="pzfVC9VM8FYr7gVDMRTt-84" value="TL" style="text;html=1;whiteSpace=wrap;strokeColor=none;fillColor=none;align=center;verticalAlign=middle;rounded=0;fontSize=16;labelBackgroundColor=none;" vertex="1" parent="1">
          <mxGeometry x="830" y="833" width="60" height="30" as="geometry" />
        </mxCell>
        <mxCell id="pzfVC9VM8FYr7gVDMRTt-85" value="TL" style="text;html=1;whiteSpace=wrap;strokeColor=none;fillColor=none;align=center;verticalAlign=middle;rounded=0;fontSize=16;labelBackgroundColor=none;" vertex="1" parent="1">
          <mxGeometry x="610" y="933" width="60" height="30" as="geometry" />
        </mxCell>
        <mxCell id="pzfVC9VM8FYr7gVDMRTt-88" value="TL" style="text;html=1;whiteSpace=wrap;strokeColor=none;fillColor=none;align=center;verticalAlign=middle;rounded=0;fontSize=16;labelBackgroundColor=none;" vertex="1" parent="1">
          <mxGeometry x="690" y="933" width="60" height="30" as="geometry" />
        </mxCell>
        <mxCell id="pzfVC9VM8FYr7gVDMRTt-89" value="&lt;div&gt;PAS&lt;/div&gt;" style="text;html=1;whiteSpace=wrap;strokeColor=none;fillColor=none;align=center;verticalAlign=middle;rounded=0;fontSize=16;labelBackgroundColor=none;" vertex="1" parent="1">
          <mxGeometry x="770" y="933" width="60" height="30" as="geometry" />
        </mxCell>
        <mxCell id="pzfVC9VM8FYr7gVDMRTt-90" value="PAS" style="text;html=1;whiteSpace=wrap;strokeColor=none;fillColor=none;align=center;verticalAlign=middle;rounded=0;fontSize=16;labelBackgroundColor=none;" vertex="1" parent="1">
          <mxGeometry x="840" y="933" width="60" height="30" as="geometry" />
        </mxCell>
        <mxCell id="pzfVC9VM8FYr7gVDMRTt-91" value="PAS" style="text;html=1;whiteSpace=wrap;strokeColor=none;fillColor=none;align=center;verticalAlign=middle;rounded=0;fontSize=16;labelBackgroundColor=none;" vertex="1" parent="1">
          <mxGeometry x="610" y="1023" width="60" height="30" as="geometry" />
        </mxCell>
        <mxCell id="pzfVC9VM8FYr7gVDMRTt-92" value="PAS" style="text;html=1;whiteSpace=wrap;strokeColor=none;fillColor=none;align=center;verticalAlign=middle;rounded=0;fontSize=16;labelBackgroundColor=none;" vertex="1" parent="1">
          <mxGeometry x="690" y="1023" width="60" height="30" as="geometry" />
        </mxCell>
        <mxCell id="pzfVC9VM8FYr7gVDMRTt-93" value="TL" style="text;html=1;whiteSpace=wrap;strokeColor=none;fillColor=none;align=center;verticalAlign=middle;rounded=0;fontSize=16;labelBackgroundColor=none;" vertex="1" parent="1">
          <mxGeometry x="770" y="1023" width="60" height="30" as="geometry" />
        </mxCell>
        <mxCell id="pzfVC9VM8FYr7gVDMRTt-94" value="TL" style="text;html=1;whiteSpace=wrap;strokeColor=none;fillColor=none;align=center;verticalAlign=middle;rounded=0;fontSize=16;labelBackgroundColor=none;" vertex="1" parent="1">
          <mxGeometry x="840" y="1023" width="60" height="30" as="geometry" />
        </mxCell>
        <mxCell id="pzfVC9VM8FYr7gVDMRTt-95" value="PAS" style="text;html=1;whiteSpace=wrap;strokeColor=none;fillColor=none;align=center;verticalAlign=middle;rounded=0;fontSize=16;labelBackgroundColor=none;" vertex="1" parent="1">
          <mxGeometry x="610" y="1113" width="60" height="30" as="geometry" />
        </mxCell>
        <mxCell id="pzfVC9VM8FYr7gVDMRTt-96" value="PAS" style="text;html=1;whiteSpace=wrap;strokeColor=none;fillColor=none;align=center;verticalAlign=middle;rounded=0;fontSize=16;labelBackgroundColor=none;" vertex="1" parent="1">
          <mxGeometry x="690" y="1113" width="60" height="30" as="geometry" />
        </mxCell>
        <mxCell id="pzfVC9VM8FYr7gVDMRTt-97" value="TL" style="text;html=1;whiteSpace=wrap;strokeColor=none;fillColor=none;align=center;verticalAlign=middle;rounded=0;fontSize=16;labelBackgroundColor=none;" vertex="1" parent="1">
          <mxGeometry x="770" y="1113" width="60" height="30" as="geometry" />
        </mxCell>
        <mxCell id="pzfVC9VM8FYr7gVDMRTt-98" value="TL" style="text;html=1;whiteSpace=wrap;strokeColor=none;fillColor=none;align=center;verticalAlign=middle;rounded=0;fontSize=16;labelBackgroundColor=none;" vertex="1" parent="1">
          <mxGeometry x="830" y="1113" width="60" height="30" as="geometry" />
        </mxCell>
        <mxCell id="pzfVC9VM8FYr7gVDMRTt-99" value="PAS" style="text;html=1;whiteSpace=wrap;strokeColor=none;fillColor=none;align=center;verticalAlign=middle;rounded=0;fontSize=16;labelBackgroundColor=none;" vertex="1" parent="1">
          <mxGeometry x="610" y="1203" width="60" height="30" as="geometry" />
        </mxCell>
        <mxCell id="pzfVC9VM8FYr7gVDMRTt-100" value="PAS" style="text;html=1;whiteSpace=wrap;strokeColor=none;fillColor=none;align=center;verticalAlign=middle;rounded=0;fontSize=16;labelBackgroundColor=none;" vertex="1" parent="1">
          <mxGeometry x="690" y="1203" width="60" height="30" as="geometry" />
        </mxCell>
        <mxCell id="pzfVC9VM8FYr7gVDMRTt-101" value="TL" style="text;html=1;whiteSpace=wrap;strokeColor=none;fillColor=none;align=center;verticalAlign=middle;rounded=0;fontSize=16;labelBackgroundColor=none;" vertex="1" parent="1">
          <mxGeometry x="770" y="1203" width="60" height="30" as="geometry" />
        </mxCell>
        <mxCell id="pzfVC9VM8FYr7gVDMRTt-102" value="TL" style="text;html=1;whiteSpace=wrap;strokeColor=none;fillColor=none;align=center;verticalAlign=middle;rounded=0;fontSize=16;labelBackgroundColor=none;" vertex="1" parent="1">
          <mxGeometry x="840" y="1203" width="60" height="30" as="geometry" />
        </mxCell>
        <mxCell id="pzfVC9VM8FYr7gVDMRTt-103" value="TL, Finance" style="text;html=1;whiteSpace=wrap;strokeColor=none;fillColor=none;align=center;verticalAlign=middle;rounded=0;fontSize=16;labelBackgroundColor=none;" vertex="1" parent="1">
          <mxGeometry x="610" y="1283" width="60" height="30" as="geometry" />
        </mxCell>
        <mxCell id="pzfVC9VM8FYr7gVDMRTt-104" value="TL, Finance" style="text;html=1;whiteSpace=wrap;strokeColor=none;fillColor=none;align=center;verticalAlign=middle;rounded=0;fontSize=16;labelBackgroundColor=none;" vertex="1" parent="1">
          <mxGeometry x="690" y="1283" width="60" height="30" as="geometry" />
        </mxCell>
        <mxCell id="pzfVC9VM8FYr7gVDMRTt-106" value="" style="edgeStyle=none;curved=1;rounded=0;orthogonalLoop=1;jettySize=auto;html=1;fontSize=12;startSize=8;endSize=8;" edge="1" parent="1" source="pzfVC9VM8FYr7gVDMRTt-105">
          <mxGeometry relative="1" as="geometry">
            <mxPoint x="205" y="190" as="targetPoint" />
          </mxGeometry>
        </mxCell>
        <mxCell id="pzfVC9VM8FYr7gVDMRTt-105" value="Start" style="rounded=1;whiteSpace=wrap;html=1;labelBackgroundColor=none;" vertex="1" parent="1">
          <mxGeometry x="110" y="130" width="190" height="30" as="geometry" />
        </mxCell>
        <mxCell id="pzfVC9VM8FYr7gVDMRTt-108" value="GL" style="text;html=1;whiteSpace=wrap;strokeColor=none;fillColor=none;align=center;verticalAlign=middle;rounded=0;fontSize=16;" vertex="1" parent="1">
          <mxGeometry x="760" y="1283" width="60" height="30" as="geometry" />
        </mxCell>
        <mxCell id="pzfVC9VM8FYr7gVDMRTt-109" value="GL" style="text;html=1;whiteSpace=wrap;strokeColor=none;fillColor=none;align=center;verticalAlign=middle;rounded=0;fontSize=16;" vertex="1" parent="1">
          <mxGeometry x="830" y="1283" width="60" height="30" as="geometry" />
        </mxCell>
      </root>
    </mxGraphModel>
  </diagram>
</mxfile>
